<mxfile host="app.diagrams.net" modified="2023-06-08T12:47:43.830Z" agent="Mozilla/5.0 (Windows NT 10.0; Win64; x64) AppleWebKit/537.36 (KHTML, like Gecko) Chrome/114.0.0.0 Safari/537.36" version="21.3.7" etag="aR42cA8b-ym-Nk8N8Jvg" type="github">
  <diagram name="Page-1" id="1rJQsK4QKt6-Tu9ghTZN">
    <mxGraphModel>
      <root>
        <mxCell id="0" />
        <mxCell id="1" parent="0" />
      </root>
    </mxGraphModel>
  </diagram>
</mxfile>
